<?xml version="1.0" encoding="UTF-8"?>
<svg id="Layer_2" data-name="Layer 2" xmlns="http://www.w3.org/2000/svg" viewBox="0 0 558.1 581.88">
  <path d="m86.84,470.18c10.22,23.26,101.03,3.08,145.57,25.83,62.61,34.43,58.46,94.06,69.65,88.43,11.2-5.62,30.9-69.91,43.83-79.83,12.93-9.91,47.39,23.38,73,42.21s20.91,26.66,72.56,23.53c51.65-3.13,58.7-19.57,43.04-33.65s-96.24-30.16-36.78-69.65c59.46-39.49-101.52,10.91-13.09-133.09,9.39-19.35,53.5-15.03,62.61-38.35s-76.98-52.01-22.7-97.83C447.71,24.83,238.84,8.6,254.28,25.87c15.44,17.27,83.61,95.61,79.43,101.35-4.17,5.74-71.95-31.19-125.35-35.09-36.62-2.67-119.04-1.61-124.43,11.74-3.83,14.39,165.15,68.71,155.74,75.91s-171.54,10.07-219.13,76.7c-3.02,15.29,170.61-25.04,230.87,95.48,40.48,106.48-174.78,94.96-164.57,118.22Z" fill="currentColor"/>
</svg>