<?xml version="1.0" encoding="UTF-8"?>
<svg id="body_1" data-name="body 1" xmlns="http://www.w3.org/2000/svg" viewBox="0 0 156.33 183.72">
  <path fill="#C8AA6E" d="m103.89,183.72c23.24-.37,41.25-15.97,52.43-51.46-3.81-.64-7.75-6.12-11.93-20.93l-1.17-55.37S133.43,0,78.28,0C24.65-.18,12.52,56.74,12.52,56.74v52.63s-6.07,20.15-12.52,21.52c0,0,9.98,51.26,51.46,52.83,0,0-23.09-21.13-3.52-71.41,0,0-39.52-10.37-20.15-40.3,0,0,22.11-3.91,39.52,22.7v48.91l10.86,9.98,9.68-9.39-.2-49.11s12.72-24.85,40.11-23.09c0,0,17.61,27.2-20.15,40.11,0,0,18.59,41.67-3.72,71.61Z"/>
</svg>