<?xml version="1.0" encoding="UTF-8"?>
<svg id="Layer_1" data-name="Layer 1" xmlns="http://www.w3.org/2000/svg" viewBox="0 0 266.33 102.64">
  <g>
    <path d="m39.75,75.81c0,3.86-1.95,5.8-5.84,5.8H15.92c-3.81,0-5.71-1.93-5.71-5.8v-15.6h9.44v13.25h10.62V18.18h9.48v57.63Z" style="fill: #fff; stroke: #231f20; stroke-linecap: square; stroke-miterlimit: 5; stroke-width: 2px;"/>
    <path d="m79.42,81.61h-9.4l-1.9-12.04h-11.87l-1.9,12.04h-9.36v-.16l12.28-63.34h9.97l12.2,63.51Zm-12.64-20.18l-4.62-28.61-4.66,28.61h9.28Z" style="fill: #fff; stroke: #231f20; stroke-linecap: square; stroke-miterlimit: 5; stroke-width: 2px;"/>
    <path d="m116.71,81.61h-10.46l-12.04-28.29v28.29h-9.48V18.18h9.48v26.83l10.54-26.83h10.38v.45l-12.89,30.11,14.47,32.87Z" style="fill: #fff; stroke: #231f20; stroke-linecap: square; stroke-miterlimit: 5; stroke-width: 2px;"/>
    <path d="m130.89,18.18l-5.55,19.86h-6.08l2.11-19.86h9.52Z" style="fill: #fff; stroke: #231f20; stroke-linecap: square; stroke-miterlimit: 5; stroke-width: 2px;"/>
    <path d="m167.17,75.81c0,3.86-1.92,5.8-5.75,5.8h-19.09c-3.81,0-5.71-1.93-5.71-5.8v-15.12h9.48v12.93h11.59v-12.44l-19.01-17.99c-1.38-1.32-2.07-3.01-2.07-5.07v-14.1c0-3.89,1.91-5.84,5.71-5.84h19.09c3.84,0,5.75,1.92,5.75,5.75v14.18h-9.48v-11.96h-11.59v11.47l19.01,17.91c1.38,1.3,2.07,3.01,2.07,5.15v15.12Z" style="fill: #fff; stroke: #231f20; stroke-linecap: square; stroke-miterlimit: 5; stroke-width: 2px;"/>
    <path d="m206.6,81.61h-9.56v-28.45h-12.85v28.45h-9.48V18.18h9.48v26.14h12.85v-26.14h9.56v63.43Z" style="fill: #fff; stroke: #231f20; stroke-linecap: square; stroke-miterlimit: 5; stroke-width: 2px;"/>
    <path d="m246.11,75.81c0,3.86-1.92,5.8-5.75,5.8h-20.59c-3.76,0-5.63-1.93-5.63-5.8V24.02c0-3.89,1.88-5.84,5.63-5.84h20.59c3.84,0,5.75,1.95,5.75,5.84v51.79Zm-9.48-2.35V26.33h-13.01v47.13h13.01Z" style="fill: #fff; stroke: #231f20; stroke-linecap: square; stroke-miterlimit: 5; stroke-width: 2px;"/>
  </g>
  <rect x="1" y="97.82" width="264.33" height="3.82" style="fill: #fff; stroke: #231f20; stroke-linecap: square; stroke-miterlimit: 5; stroke-width: 2px;"/>
  <rect x="1" y="1" width="264.33" height="3.82" style="fill: #fff; stroke: #231f20; stroke-linecap: square; stroke-miterlimit: 5; stroke-width: 2px;"/>
</svg>